<svg version="1.2" xmlns="http://www.w3.org/2000/svg" viewBox="0 0 298 300" width="508" height="511"><style>.s1{fill:#007042}</style><g id="g4387"><path id="path3040" d="M297.7 150c0 82.6-66.6 149.5-148.7 149.5S.3 232.6.3 150 66.9.5 149 .5 297.7 67.4 297.7 150z" style="fill:#fff"/><g id="g4381"><path id="inner_artwork" fill-rule="evenodd" class="s1" d="M295.3 157.3c.1 3.8.4 7-1 10.8-15.3 4.4-25.3-11.8-40.1-9.3l1.7 8.3c13.7.5 22.2 13.6 36.4 13-2 4.1.9 14.6-8 10.4-9.3-2.2-15.9-10.4-26.1-10.4-1.2 2.3-.4 5.4-.6 8 10.6 1.7 18.3 10.7 29 12.4-1 3.7-2 7.8-5 10-8.7-2.1-15.5-9.9-24.7-9.7l-1.7 7.7c8.8.2 14.5 8 22.4 10.3.2 3.3-2.7 6.2-4.4 9.1-7-2.1-12.3-8.2-20.3-7.7-.1-3 1.7-6.5 1-9.7-9 2.7-15-5.7-21.7-10.7-.2-16.4-17.5-27.1-18.4-42.5-.1-3.1.3-6.3 1.7-9.9 5.7-13.1 3.9-30.1-2.3-42.4-1.9-3.2-5.3-5.7-8.4-7.6 4.6 9.7 10.2 21.1 7.4 33-.3 9.2-5.8 18-5.8 26.9-.1 3.1.6 6.3 2.4 9.5 7.3 13 20.3 25.4 15.4 41.7-1.3 5-5.4 8.9-6.4 14 8.5 7 16.5 14.9 27.7 15.4 4-2.6 1.8-13.9 10.1-8.7l12 6c-.9 3.2-3.6 6.1-6 8.3-4.6-2.2-9-4.8-14.7-4.6-1.7 1.8-3.1 3.8-3 6.3 4 .7 7.7 2.4 11 4.7-1.6 3.3-4.6 5.4-7.4 8l-9.3-3.3c-1.5 2.2-4.8 4.5-3.6 7 2.1.9 4.4 2.1 5.9 3.7-4.1 4.4-9.3 7.3-14.3 10.3-4.3-14.1-18.6-24.1-17.4-40.4l-.6-.7c-3.4 3.8-2.3 9.8-2 14.7 4 10.2 13.5 18.2 15 29.4-1.7 2.9-5.5 3.4-8.4 4.7.4-20.3-30.3-35.6-10.6-56.1 6.5-10 17.5-19.6 13.6-33.4-4-13.3-18.1-21.6-18-36.5v-1.2c3.2-15.6 13-32.1 5-48.7-2.2-6.7-7.2-14.2-14-17 10.1 11.5 14.1 30.4 8.4 46-3 6.2-7 13.6-7.4 20.9-.2 3.8.6 7.6 3 11.2 7.7 12.4 21 26.1 13.4 42.4-8.7 13-23.8 26.2-15.4 43.3 6.1 10.3 15.6 20.5 13 33.1l-10 3.3c6.7-23.5-26-37.2-12.3-60.7 8.4-12.6 23.6-24.4 15-41.1-5.1-10.3-15.7-16.4-15.4-29.3l.4-2.2c3.5-18.3 17.4-35.7 7.6-55.3-2.5-5.7-7.6-11.6-13.3-15l-.3.4c11.3 11 14.8 29.1 8.6 43.7-2.8 8.5-9.1 17-10.4 26.2-.6 4.3-.1 8.8 2.4 13.5 7.3 11.4 19.9 23.6 12 38.4-8.3 12.2-22.2 24.1-16.7 40 6.2 13.9 18.9 27.2 12 44.4l-10.3 2.4c8.2-16.9-4.1-33.5-11.3-48.1-8.8-20.9 18.9-30.9 19.3-50.1-.1-12.3-13.2-19.3-16-30.7-5.7-4.7-11.5 1.9-18.3.7-5 1-12.7-6.9-15.7 1.7-3.6 12.5-19.8 21.8-12.7 36.7 6.8 13.2 23.1 22.9 17.7 40-4.9 16.1-21.1 31.3-11 49.8-4.2-1.4-11.8 1.2-11.7-5.4-6.4-22.4 20.7-35.4 12.3-57.7-3.9-13.7-21.6-21.3-17.7-37.7 2.9-13.6 18.1-23.1 16-37.9q-.3-1.9-.9-3.8c-5.7-16.1-17.3-32.1-10.4-50.8 1.9-5.3 5.7-9.9 9-14.7-11 5.9-16.6 18.4-16.3 31.1-.5 13.8 9.7 25.6 11.1 38.2.6 5.1-.2 10.3-3.8 15.8-7.2 9.8-16.7 20.2-12.3 33.1 4.1 13 20.3 20.9 19.3 36-.1 17.9-20.9 29.1-15 49.1l-10.3-3.4c-4.2-17.8 14.8-26.9 15-43.3 2.6-19-21.5-26-20.1-44.4-.1-14.1 12.3-22.9 17.7-34.7 1-2.9 1.3-5.6 1.2-8.2-.7-13-12.5-23.2-10.5-37.9.6-10.8 4.3-20.3 11.3-28.4-9.6 3.9-13.6 15.1-16.3 24.4-4.7 15 6.4 28.5 7.5 41.9.5 5.9-.9 11.8-6.5 17.8-8 9.5-16.1 21.4-10.4 34.1 6.2 14 25.4 24.9 17.1 42.4-4.6 11-15.5 19.3-15 32.3-2.9-1.2-5.9-2.4-8.4-4.6 0-16.6 23.6-27 12.3-44.4-.9 3.4-1.2 8.1-1.9 12-3.9 10.1-12.3 18.2-15.4 28.7-5.2-2-10.7-6.2-15-10.7l6-3.7c-.7-2.2-2.4-4.1-4-6-3.9-.5-6.5 2-9.7 3-2.8-2.4-5.5-4.6-7.7-7.6 2-5.7 17.6-1 9.7-10.4-5.3-3.3-10.7 1.5-15.3 3.7l-6.4-8c5.5-3.3 10.9-8 17.7-6.7 1.7 3 1.8 7.4 5 9 11.5-.2 19.6-8.9 28.4-15.7-6.2-9.1-11.1-21.6-5.7-32.7 4.4-11 15.7-20.3 16.2-32.5.1-2.8-.3-5.7-1.5-8.9-6-15.4-8.1-36.3 3.3-50-6.2 1.7-9.9 9.4-12 15.3-6.9 15.1 1.8 29.1 2.1 43.6.1 2.6-.1 5.2-.8 7.8-5.9 11.9-15.4 22.4-17 36.1-6.8 4.3-12.3 11.9-22 9.3-.3 2.6.4 6.5 1.3 9.4-7.6-.4-12.9 5.3-19.3 8-3.5-1.1-4.4-5.6-5.7-8.7 7.6-2.6 13-10.1 21.7-10 1-2.8-.6-5.4-1-8-10.8-4.8-27.9 23.7-29.4-1 10.8-.7 17.7-10.7 28.4-11.7l.3-8c-12.1-1.2-19.9 11.2-32 10l-2.7-10.7c14 .9 22.4-11.7 35.7-12.3 1.8-2.4 2-5.8 2.4-9-14.6-1.9-24.6 14.2-40.1 9.3 0 0-.5-6.7-.8-10.5-.1-1.5-.2-2.5-.2-2.5 13.8 5.3 25.9-4.6 37.7-9.7 3-.9 7.7.7 9-2.7-.1-2.5 4.6-5.5.7-7.3-17.2-2.4-28.7 18.5-46.4 9l-1.3-2.7c3.7-50.3 32-98.9 79.1-122.8C99.7 7.7 123.4 2.2 147.3 2c28.8-.3 57.9 7.3 79.6 22.6 21 12.9 41.1 34.2 52 55.8 10.5 18.9 15.3 40.1 16.7 62.7-18.2 13.8-30.5-13-49.1-7 1 2.9 1.6 5.9 3.7 8.3 16.5-.1 27.8 17.2 45.1 10.4zM217.2 60c-8.3-.5-15.2 4.2-22.7 6.3-.7-6.4 4.2-13.2 5.3-19.7-12.2.8-21.9 8.2-32 14.1q-3.5-8.5-7-17.1l13.3-12.7.4-1.6-18.1-1c-3.1-5.5-4.3-12-8-17-3 5.6-5 11.6-8 17.3l-18 1v1.3l13.7 12.4c-1.7 6.3-3.3 13.2-7.4 18-8-4.8-15.9-10-24.7-13.3-2.1-.7-5.1-1.8-7-.4 2.8 6.2 6.7 12.7 6 19.4-3.6-.7-6.5-3-10-4-4.1-1.1-9-3.3-13-2 6.7 9.3 12.1 19.1 14 30.4 22.1-10.7 48-16.6 74.8-12 12.6 2 24.1 7.1 35.3 11.3.5-11.8 7.9-21.3 13.1-30.7zM85.7 95.4c-11.6-7.6-26.3-.5-37.1 3.6-1-10.1-5.1-19.3-13.7-26-.8-.4-1.9-1.3-3-1.3-.6-.1-1.2.2-1.6 1 3.8 23.9-11.7 40.6-22.7 58.7 3.6 3 9.5 2.5 14 1.7 11.7-4.7 22.8-12.8 36.7-10 4.1-7.1 11-13.8 16.7-19.4 3.4-3 8.2-4.9 10.7-8.3zm89.7.6c-3.1-6.9-10.2-9.6-16.7-11.3-3.1-.4-6.4-.7-9.7-.7h-1.8c-9.1.2-17.8 2.5-23.2 10-.7 2.1-4.1 5.1-1 7 7-.4 15-1.3 19.7 4.7 0 5.4 3.5 12.5-2.3 15-4.8-4.4-10.5 1.9-15.7-1.6-2.4-1.5-4 .2-5 2.3-1.4 13.8 5.8 29 18.7 36.7 5.2 1.9 12.2 3.7 17.7 1 13.1-6.1 18.6-20.1 21-33-.3-2.5-.2-7.3-3.7-7.4-3.8 2.5-9.5 1-13.6 0-2.5.8-2.6 4.4-5.4 5l-1.7-1.3c-1.4-6.1-2.3-14.8 3.4-19 6.3-2.6 13.8-3.7 20.3-1.7 1.3-2.1-.6-3.8-1-5.7zM121 110.4c-.2 1.4.1 4 2.4 3 3.4-4.8 9.5-1 13.3-.7v-1.3c-2.1-3.3-6.3-4.9-10.7-4.7q-1.5 0-3 .4c-1.4.3-2.4 1.6-2 3.3zm47.7-3.4q-.6 0-1.3.1c-2.3 1.5-9.1.4-6.6 5.6 4.2-3.3 10.1-1 14.3.7 1.6-.8 1.2-2.3 1.3-3.7-1.3-2.5-4.6-2.8-7.7-2.7zm-21-53.4c5.3 3.1 10.8 6.9 15.1 11.1l-1.7 1.6c-8.3-.9-17.1.2-25 .4-.9-.9-2.7-2.3-1-3.4zM255.1 124c11.4 3 22.7 15.4 34.7 7.4-10.4-17.4-26-33.4-21.7-56.1.5-1.5-.5-3.1-1.9-3.3-6.8 2.8-12.1 9.4-14.8 16-1.1 3.9-1.7 8-3.3 11.7-8.1-4.2-16.8-8.3-26.7-7.4-3.5.5-8.7.7-9.3 4.4 11.2 6 20.4 16 27.3 26.7 4.8-.8 10.7-.1 15.7.6zm-94.8 16.4c-2.6 4-6.6 9-12 8.7-6 .4-7.3-4.5-11.7-7.4l-.3-2c8 1.3 16.8-.3 24 .7zm-11.4-11.6c2.4 0 4.7.7 6.1 2.3-2 4.2-8.5 1.5-12 2.3-1.2-.5-.5-1.8-.7-2.7 1.8-1.2 4.3-1.9 6.6-1.9z"/><g id="g4377"><path id="rect3815" d="M136.4 126.9h24.4v10h-24.4z" style="opacity:1;fill:#fff"/><path id="path3032-6" class="s1" d="M140.8 130.8c2.4-2.6 4.6-.6 7-.6 1.8-.1 3.8-2.1 6.6.8.5.5.1 1.1-.2 1.2-4.6 1.6-4.2 2.2-6.9 2.2-2.4-.3-3.2-1.4-6.4-2.2-.7-.3-.5-.8-.1-1.4z"/></g></g></g></svg>